<svg width="312" height="66" viewBox="0 0 312 66" fill="none" xmlns="http://www.w3.org/2000/svg" xmlns:xlink="http://www.w3.org/1999/xlink">
<path d="M249.589,44.418C250.047,43.081 250.218,41.396 250.218,38.606C250.218,35.816 250.047,34.189 249.589,32.794C248.673,30.004 246.554,28.609 243.519,28.609C240.484,28.609 238.423,30.062 237.507,32.794C237.048,34.305 236.876,36.107 236.876,38.606C236.876,41.163 237.048,42.965 237.507,44.418C238.423,47.15 240.484,48.661 243.519,48.661C246.554,48.661 248.673,47.208 249.589,44.418ZM250.791,52.555C250.448,52.555 250.218,52.323 250.218,51.974L250.218,49.301L250.162,49.301C248.845,51.509 246.497,53.194 242.374,53.194C237.622,53.194 234.3,50.928 232.926,46.51C232.181,44.302 231.953,42.094 231.953,38.606C231.953,35.177 232.181,32.968 232.926,30.759C234.3,26.342 237.622,24.075 242.374,24.075C246.497,24.075 248.845,25.703 250.162,27.911L250.218,27.911L250.218,13.613C250.218,13.264 250.448,13.031 250.791,13.031L254.456,13.031C254.8,13.031 255.029,13.264 255.029,13.613L255.029,51.974C255.029,52.323 254.8,52.555 254.456,52.555L250.791,52.555ZM278.622,43.547L278.622,40.466C278.622,40.233 278.508,40.117 278.279,40.117L272.782,40.117C268.029,40.117 265.967,41.512 265.967,44.65C265.967,47.499 268.029,49.01 271.693,49.01C275.988,49.01 278.622,46.976 278.622,43.547ZM279.309,52.555C278.966,52.555 278.737,52.323 278.737,51.974L278.737,49.533L278.679,49.533C277.42,51.625 274.728,53.195 270.548,53.195C265.338,53.195 261.329,50.463 261.329,44.825C261.329,38.955 265.338,36.223 272.037,36.223L278.279,36.223C278.508,36.223 278.622,36.107 278.622,35.874L278.622,33.84C278.622,30.004 277.133,28.376 272.037,28.376C268.945,28.376 266.998,29.19 265.394,30.353C265.109,30.585 264.765,30.585 264.593,30.294L263.046,27.621C262.875,27.272 262.932,27.039 263.161,26.807C265.223,25.18 268.43,24.076 272.495,24.076C280.283,24.076 283.26,26.691 283.26,33.549L283.26,51.974C283.26,52.323 283.031,52.555 282.688,52.555L279.309,52.555ZM290.706,63.017C290.363,63.017 290.134,62.785 290.134,62.436L290.134,59.065C290.134,58.716 290.363,58.484 290.706,58.484L291.737,58.484C293.971,58.484 295.173,57.496 296.375,54.299L297.292,51.742L287.213,25.295C287.098,24.947 287.271,24.714 287.671,24.714L291.68,24.714C292.023,24.714 292.252,24.889 292.367,25.295L299.582,45.406L299.696,45.406L306.626,25.295C306.74,24.889 306.969,24.714 307.312,24.714L311.207,24.714C311.55,24.714 311.779,24.947 311.664,25.295L300.842,54.706C298.436,61.274 296.318,63.017 292.195,63.017L290.706,63.017Z" clip-rule="evenodd" fill-rule="evenodd" fill="#313131"/>
<path d="M151.668,24.83C151.668,20.529 148.862,17.856 144.052,17.856L135.348,17.856C135.119,17.856 135.005,17.972 135.005,18.204L135.005,31.457C135.005,31.689 135.119,31.805 135.348,31.805L144.052,31.805C148.862,31.805 151.668,29.132 151.668,24.83ZM130.481,52.555C130.138,52.555 129.908,52.322 129.908,51.974L129.908,13.613C129.908,13.264 130.138,13.031 130.481,13.031L144.338,13.031C151.839,13.031 156.707,17.681 156.707,24.83C156.707,31.98 151.839,36.629 144.338,36.629L135.348,36.629C135.119,36.629 135.005,36.745 135.005,36.978L135.005,51.974C135.005,52.322 134.776,52.555 134.432,52.555L130.481,52.555ZM168.562,52.846C163.752,52.846 161.862,50.521 161.862,45.522L161.862,13.613C161.862,13.264 162.091,13.031 162.435,13.031L166.1,13.031C166.443,13.031 166.672,13.264 166.672,13.613L166.672,45.231C166.672,47.556 167.531,48.312 169.421,48.312L170.509,48.312C170.852,48.312 171.081,48.544 171.081,48.893L171.081,52.264C171.081,52.613 170.852,52.846 170.509,52.846L168.562,52.846ZM192.041,43.546L192.041,40.465C192.041,40.233 191.926,40.116 191.697,40.116L186.2,40.116C181.447,40.116 179.385,41.512 179.385,44.65C179.385,47.498 181.447,49.01 185.112,49.01C189.407,49.01 192.041,46.975 192.041,43.546ZM192.728,52.555C192.384,52.555 192.155,52.323 192.155,51.974L192.155,49.533L192.098,49.533C190.838,51.625 188.147,53.194 183.967,53.194C178.756,53.194 174.748,50.463 174.748,44.825C174.748,38.954 178.756,36.222 185.456,36.222L191.697,36.222C191.926,36.222 192.041,36.106 192.041,35.874L192.041,33.839C192.041,30.003 190.551,28.376 185.456,28.376C182.363,28.376 180.417,29.189 178.813,30.352C178.527,30.585 178.183,30.585 178.011,30.294L176.465,27.62C176.294,27.271 176.351,27.039 176.58,26.807C178.641,25.179 181.848,24.075 185.913,24.075C193.701,24.075 196.679,26.69 196.679,33.549L196.679,51.974C196.679,52.323 196.45,52.555 196.106,52.555L192.728,52.555ZM221.933,52.555C221.589,52.555 221.36,52.323 221.36,51.974L221.36,35.699C221.36,31.224 219.356,28.608 215.233,28.608C211.511,28.608 208.934,31.283 208.934,35.409L208.934,51.974C208.934,52.323 208.705,52.555 208.362,52.555L204.697,52.555C204.353,52.555 204.124,52.323 204.124,51.974L204.124,25.295C204.124,24.947 204.353,24.714 204.697,24.714L208.362,24.714C208.705,24.714 208.934,24.947 208.934,25.295L208.934,27.853L208.991,27.853C210.308,25.702 212.943,24.075 216.664,24.075C222.62,24.075 226.17,28.202 226.17,34.537L226.17,51.974C226.17,52.323 225.941,52.555 225.598,52.555L221.933,52.555Z" clip-rule="evenodd" fill-rule="evenodd" fill="#313131"/>
<path d="M82.122,26.881C80.914,21.309 77.938,16.04 73.152,11.964C61.458,2.004 44.872,3.974 35.519,15.288L35.518,15.289L35.518,15.29L1.544,56.387C-0.66,59.053 -0.488,62.019 1.957,64.102C4.403,66.186 7.311,65.842 9.515,63.176L29.858,38.568L43.396,22.191L43.399,22.194C43.429,22.155 43.458,22.116 43.489,22.078C43.675,21.854 43.864,21.638 44.056,21.426C44.087,21.393 44.119,21.36 44.151,21.326C50.359,14.617 60.125,14.495 66.542,19.96C66.542,19.96 66.58,19.984 66.652,20.025C74.189,26.536 73.788,36.962 68.49,43.371C68.306,43.594 67.861,44.089 67.829,44.123C61.621,50.831 52.002,50.976 45.328,45.423C43.935,44.22 42.813,42.883 41.944,41.461C40.901,39.757 38.524,39.585 37.256,41.123L32.899,46.407C34.405,49 36.378,51.398 38.828,53.485C50.522,63.445 67.107,61.475 76.461,50.16C76.461,50.16 83.937,41.361 82.122,26.881Z" clip-rule="evenodd" fill-rule="evenodd" fill="#313131"/>
<path d="M82.139,26.884L102.482,2.276C104.686,-0.39 107.594,-0.733 110.04,1.349C112.485,3.432 112.657,6.399 110.453,9.065L76.461,50.159C67.108,61.474 50.522,63.443 38.828,53.484C36.379,51.398 34.405,48.998 32.899,46.407L37.256,41.122C38.524,39.584 40.901,39.756 41.944,41.46C42.813,42.881 43.952,44.223 45.345,45.427C51.968,50.957 61.611,50.836 67.819,44.127C67.827,44.118 68.344,43.539 68.48,43.375L82.139,26.884Z" clip-rule="evenodd" fill-rule="evenodd" fill="#313131"/>
</svg>
