<svg width="1484" height="1514" viewBox="0 0 1484 1514" fill="none" xmlns="http://www.w3.org/2000/svg" xmlns:xlink="http://www.w3.org/1999/xlink">
<path d="M406,472C406,211.322 637.98,0 924.142,0C1210.304,0 1442.286,211.322 1442.286,472L1442.286,1496L406,1496L406,472Z" fill="#D7FCFF"/>
<path d="M193.143,122.694L192.127,120.971L193.143,122.694ZM174.571,275.489L174.205,277.456L174.571,275.489ZM6,239.22L22.639,223.205L0.45,216.802L6,239.22ZM467.536,251.829C440.3,219.179 393.928,173.444 343.26,142.346C292.726,111.33 237.162,94.433 192.127,120.971L194.158,124.417C237.124,99.098 290.844,114.869 341.168,145.755C391.358,176.56 437.414,221.963 464.464,254.391L467.536,251.829ZM192.127,120.971C136.725,153.619 120.352,190.422 124.077,220.563C127.772,250.469 151.26,273.182 174.205,277.456L174.938,273.523C153.761,269.579 131.535,248.304 128.046,220.073C124.587,192.077 139.561,156.591 194.158,124.417L192.127,120.971ZM174.205,277.456C190.905,280.566 205.96,270.121 217.074,253.764C228.236,237.338 235.828,214.444 237.636,191.241C239.444,168.047 235.49,144.276 223.234,126.237C210.908,108.093 190.347,96 159.571,96L159.571,100C189.153,100 208.414,111.54 219.926,128.484C231.51,145.533 235.412,168.304 233.648,190.93C231.886,213.547 224.48,235.748 213.766,251.516C203.004,267.354 189.31,276.2 174.938,273.523L174.205,277.456ZM159.571,96C72.412,96 26.024,171.473 9.099,221.275L12.886,222.562C29.669,173.18 75.119,100 159.571,100L159.571,96Z" fill="#25A4AD"/>
<path d="M447.715,472C447.715,211.322 679.695,0 965.857,0C1252.019,0 1484.001,211.322 1484.001,472L1484.001,1514L447.715,1514L447.715,472Z" stroke="#25A4AD" stroke-width="1" stroke-miterlimit="3.999327"/>
</svg>
