<svg width="312" height="66" viewBox="0 0 312 66" fill="none" xmlns="http://www.w3.org/2000/svg" xmlns:xlink="http://www.w3.org/1999/xlink">
<path d="M248.768,44.418C249.226,43.081 249.398,41.396 249.398,38.606C249.398,35.816 249.226,34.189 248.768,32.794C247.852,30.004 245.733,28.609 242.699,28.609C239.663,28.609 237.602,30.062 236.686,32.794C236.227,34.305 236.055,36.107 236.055,38.606C236.055,41.163 236.227,42.965 236.686,44.418C237.602,47.15 239.663,48.661 242.699,48.661C245.733,48.661 247.852,47.208 248.768,44.418ZM249.97,52.555C249.627,52.555 249.398,52.323 249.398,51.974L249.398,49.301L249.341,49.301C248.024,51.509 245.676,53.194 241.553,53.194C236.801,53.194 233.479,50.928 232.105,46.51C231.361,44.302 231.132,42.094 231.132,38.606C231.132,35.177 231.361,32.968 232.105,30.759C233.479,26.342 236.801,24.075 241.553,24.075C245.676,24.075 248.024,25.703 249.341,27.911L249.398,27.911L249.398,13.613C249.398,13.264 249.627,13.031 249.97,13.031L253.635,13.031C253.979,13.031 254.208,13.264 254.208,13.613L254.208,51.974C254.208,52.323 253.979,52.555 253.635,52.555L249.97,52.555ZM277.801,43.547L277.801,40.466C277.801,40.233 277.687,40.117 277.458,40.117L271.961,40.117C267.208,40.117 265.146,41.512 265.146,44.65C265.146,47.499 267.208,49.01 270.872,49.01C275.167,49.01 277.801,46.976 277.801,43.547ZM278.488,52.555C278.145,52.555 277.916,52.323 277.916,51.974L277.916,49.533L277.858,49.533C276.599,51.625 273.907,53.195 269.727,53.195C264.517,53.195 260.508,50.463 260.508,44.825C260.508,38.955 264.517,36.223 271.216,36.223L277.458,36.223C277.687,36.223 277.801,36.107 277.801,35.874L277.801,33.84C277.801,30.004 276.312,28.376 271.216,28.376C268.124,28.376 266.177,29.19 264.573,30.353C264.288,30.585 263.944,30.585 263.772,30.294L262.225,27.621C262.054,27.272 262.111,27.039 262.34,26.807C264.402,25.18 267.609,24.076 271.674,24.076C279.462,24.076 282.439,26.691 282.439,33.549L282.439,51.974C282.439,52.323 282.21,52.555 281.867,52.555L278.488,52.555ZM289.885,63.017C289.542,63.017 289.313,62.785 289.313,62.436L289.313,59.065C289.313,58.716 289.542,58.484 289.885,58.484L290.916,58.484C293.15,58.484 294.352,57.496 295.554,54.299L296.471,51.742L286.392,25.295C286.277,24.947 286.45,24.714 286.85,24.714L290.859,24.714C291.202,24.714 291.431,24.889 291.546,25.295L298.761,45.406L298.875,45.406L305.805,25.295C305.919,24.889 306.148,24.714 306.491,24.714L310.386,24.714C310.729,24.714 310.958,24.947 310.843,25.295L300.021,54.706C297.615,61.274 295.497,63.017 291.374,63.017L289.885,63.017Z" clip-rule="evenodd" fill-rule="evenodd" fill="#313131"/>
<path d="M150.847,24.83C150.847,20.529 148.041,17.856 143.231,17.856L134.527,17.856C134.298,17.856 134.184,17.972 134.184,18.204L134.184,31.457C134.184,31.689 134.298,31.805 134.527,31.805L143.231,31.805C148.041,31.805 150.847,29.132 150.847,24.83ZM129.66,52.555C129.317,52.555 129.087,52.322 129.087,51.974L129.087,13.613C129.087,13.264 129.317,13.031 129.66,13.031L143.517,13.031C151.018,13.031 155.886,17.681 155.886,24.83C155.886,31.98 151.018,36.629 143.517,36.629L134.527,36.629C134.298,36.629 134.184,36.745 134.184,36.978L134.184,51.974C134.184,52.322 133.955,52.555 133.611,52.555L129.66,52.555ZM167.741,52.846C162.931,52.846 161.041,50.521 161.041,45.522L161.041,13.613C161.041,13.264 161.27,13.031 161.614,13.031L165.279,13.031C165.622,13.031 165.851,13.264 165.851,13.613L165.851,45.231C165.851,47.556 166.71,48.312 168.6,48.312L169.688,48.312C170.031,48.312 170.26,48.544 170.26,48.893L170.26,52.264C170.26,52.613 170.031,52.846 169.688,52.846L167.741,52.846ZM191.22,43.546L191.22,40.465C191.22,40.233 191.105,40.116 190.876,40.116L185.379,40.116C180.626,40.116 178.564,41.512 178.564,44.65C178.564,47.498 180.626,49.01 184.291,49.01C188.586,49.01 191.22,46.975 191.22,43.546ZM191.907,52.555C191.563,52.555 191.334,52.323 191.334,51.974L191.334,49.533L191.277,49.533C190.017,51.625 187.326,53.194 183.146,53.194C177.935,53.194 173.927,50.463 173.927,44.825C173.927,38.954 177.935,36.222 184.635,36.222L190.876,36.222C191.105,36.222 191.22,36.106 191.22,35.874L191.22,33.839C191.22,30.003 189.73,28.376 184.635,28.376C181.542,28.376 179.596,29.189 177.992,30.352C177.706,30.585 177.362,30.585 177.19,30.294L175.644,27.62C175.473,27.271 175.53,27.039 175.759,26.807C177.82,25.179 181.027,24.075 185.092,24.075C192.88,24.075 195.858,26.69 195.858,33.549L195.858,51.974C195.858,52.323 195.629,52.555 195.285,52.555L191.907,52.555ZM221.112,52.555C220.768,52.555 220.539,52.323 220.539,51.974L220.539,35.699C220.539,31.224 218.535,28.608 214.412,28.608C210.69,28.608 208.113,31.283 208.113,35.409L208.113,51.974C208.113,52.323 207.884,52.555 207.541,52.555L203.876,52.555C203.532,52.555 203.303,52.323 203.303,51.974L203.303,25.295C203.303,24.947 203.532,24.714 203.876,24.714L207.541,24.714C207.884,24.714 208.113,24.947 208.113,25.295L208.113,27.853L208.17,27.853C209.487,25.702 212.122,24.075 215.843,24.075C221.799,24.075 225.349,28.202 225.349,34.537L225.349,51.974C225.349,52.323 225.12,52.555 224.777,52.555L221.112,52.555Z" clip-rule="evenodd" fill-rule="evenodd" fill="#313131"/>
<path d="M81.301,26.88C80.093,21.309 77.117,16.04 72.331,11.964C60.637,2.003 44.051,3.973 34.698,15.288L34.697,15.289L34.697,15.289L0.723,56.386C-1.481,59.053 -1.309,62.019 1.136,64.102C3.582,66.185 6.49,65.842 8.694,63.175L29.037,38.567L42.575,22.191L42.578,22.193C42.608,22.155 42.637,22.116 42.668,22.078C42.854,21.854 43.043,21.638 43.235,21.426C43.266,21.392 43.298,21.36 43.33,21.325C49.538,14.617 59.304,14.495 65.721,19.96C65.721,19.96 65.759,19.984 65.831,20.025C73.368,26.536 72.967,36.962 67.669,43.371C67.485,43.594 67.04,44.089 67.008,44.123C60.8,50.831 51.181,50.975 44.507,45.423C43.114,44.22 41.992,42.882 41.123,41.461C40.08,39.757 37.703,39.585 36.435,41.123L32.078,46.407C33.584,48.999 35.557,51.398 38.007,53.485C49.701,63.444 66.286,61.474 75.64,50.16C75.64,50.16 83.116,41.361 81.301,26.88Z" clip-rule="evenodd" fill-rule="evenodd" fill="#313131"/>
<path d="M81.318,26.884L101.661,2.276C103.865,-0.39 106.773,-0.733 109.219,1.349C111.664,3.432 111.836,6.399 109.632,9.065L75.64,50.159C66.287,61.474 49.701,63.443 38.007,53.484C35.558,51.398 33.584,48.998 32.078,46.407L36.435,41.122C37.703,39.584 40.08,39.756 41.123,41.46C41.992,42.881 43.131,44.223 44.524,45.427C51.147,50.957 60.79,50.836 66.998,44.127C67.006,44.118 67.523,43.539 67.659,43.375L81.318,26.884Z" clip-rule="evenodd" fill-rule="evenodd" fill="#313131"/>
</svg>
