<svg width="236" height="70" viewBox="0 0 236 70" fill="none" xmlns="http://www.w3.org/2000/svg" xmlns:xlink="http://www.w3.org/1999/xlink">
<path d="M20.468,0C25.772,0 30.252,1.814 33.908,5.442C37.564,9.07 39.392,13.475 39.392,18.657C39.392,23.84 37.564,28.245 33.908,31.873C30.252,35.501 25.772,37.315 20.468,37.315L12.358,37.315L12.358,54.417L0,54.417L0,0L20.468,0ZM20.468,25.654C22.374,25.654 23.944,24.98 25.18,23.633C26.416,22.285 27.034,20.627 27.034,18.657C27.034,16.688 26.416,15.03 25.18,13.682C23.944,12.335 22.374,11.661 20.468,11.661L12.358,11.661L12.358,25.654L20.468,25.654Z" fill="#FFFFFF"/>
<path d="M70.873,15.548L82.459,15.548L82.459,54.417L70.873,54.417L70.873,50.764C68.144,53.925 64.307,55.506 59.364,55.506C54.266,55.506 49.915,53.536 46.311,49.598C42.706,45.607 40.904,40.735 40.904,34.983C40.904,29.23 42.706,24.384 46.311,20.445C49.915,16.455 54.266,14.46 59.364,14.46C64.307,14.46 68.144,16.04 70.873,19.202L70.873,15.548ZM55.039,41.901C56.738,43.612 58.952,44.467 61.681,44.467C64.41,44.467 66.625,43.612 68.324,41.901C70.023,40.191 70.873,37.885 70.873,34.983C70.873,32.08 70.023,29.774 68.324,28.064C66.625,26.354 64.41,25.498 61.681,25.498C58.952,25.498 56.738,26.354 55.039,28.064C53.339,29.774 52.49,32.08 52.49,34.983C52.49,37.885 53.339,40.191 55.039,41.901Z" fill="#FFFFFF"/>
<path d="M115.289,15.548L127.647,15.548L114.439,53.251C112.277,59.367 109.419,63.746 105.866,66.389C102.364,69.032 97.884,70.224 92.426,69.965L92.426,59.082C95.104,59.082 97.164,58.589 98.605,57.605C100.047,56.672 101.206,55.013 102.081,52.629L86.71,15.548L99.455,15.548L108.029,39.336L115.289,15.548Z" fill="#FFFFFF"/>
<path d="M175.171,14.46C179.599,14.46 183.152,15.937 185.83,18.891C188.508,21.793 189.846,25.68 189.846,30.552L189.846,54.417L178.26,54.417L178.26,31.562C178.26,29.593 177.771,28.038 176.793,26.898C175.866,25.758 174.501,25.188 172.699,25.188C170.794,25.188 169.301,25.835 168.219,27.131C167.189,28.427 166.674,30.215 166.674,32.495L166.674,54.417L155.089,54.417L155.089,31.562C155.089,29.593 154.599,28.038 153.621,26.898C152.694,25.758 151.33,25.188 149.527,25.188C147.622,25.188 146.129,25.835 145.047,27.131C144.018,28.427 143.503,30.215 143.503,32.495L143.503,54.417L131.917,54.417L131.917,15.548L143.503,15.548L143.503,19.124C145.614,16.014 149.064,14.46 153.853,14.46C158.333,14.46 161.705,16.17 163.971,19.59C166.34,16.17 170.073,14.46 175.171,14.46Z" fill="#FFFFFF"/>
<path d="M208.116,39.647C209.456,43.275 212.544,45.089 217.386,45.089C220.526,45.089 222.998,44.104 224.8,42.135L234.07,47.499C230.258,52.837 224.646,55.506 217.23,55.506C210.742,55.506 205.542,53.562 201.628,49.675C197.766,45.788 195.835,40.891 195.835,34.983C195.835,29.126 197.741,24.255 201.552,20.368C205.414,16.429 210.356,14.46 216.382,14.46C221.994,14.46 226.654,16.429 230.362,20.368C234.12,24.255 236,29.126 236,34.983C236,36.641 235.846,38.196 235.536,39.647L208.116,39.647ZM207.884,30.94L224.492,30.94C223.358,26.846 220.63,24.799 216.304,24.799C211.824,24.799 209.018,26.846 207.884,30.94Z" fill="#FFFFFF"/>
</svg>
