<svg width="28" height="32" viewBox="0 0 28 32" fill="none" xmlns="http://www.w3.org/2000/svg" xmlns:xlink="http://www.w3.org/1999/xlink">
<path d="M8.049,19.905C8.049,21.338 8.651,22.38 9.591,23.102C10.468,23.766 11.737,24.096 13.06,24.096C14.877,24.096 17.462,23.321 17.462,21.064C17.462,18.865 14.542,18.418 12.896,18.027C6.999,16.548 -0.378,16.383 -0.378,8.67C-0.378,1.786 7.053,-0.086 12.676,-0.086C18.951,-0.086 25.505,1.735 25.833,9.164L17.188,9.164C17.188,7.957 16.75,7.186 15.974,6.689C15.206,6.192 14.157,5.972 12.998,5.972C11.463,5.972 8.98,6.137 8.98,8.121C8.98,10.816 15.261,11.317 19.56,12.249C25.341,13.408 26.828,17.596 26.828,19.961C26.828,27.62 19.56,30.149 13.115,30.149C6.341,30.149 -0.597,27.893 -0.879,19.905L8.049,19.905Z" fill="#313131"/>
</svg>
