<svg width="30" height="32" viewBox="0 0 30 32" fill="none" xmlns="http://www.w3.org/2000/svg" xmlns:xlink="http://www.w3.org/1999/xlink">
<path d="M20.352,29.327C20.023,28.442 19.913,27.559 19.804,26.625C17.377,29.162 13.797,30.149 10.39,30.149C4.932,30.149 0.64,27.393 0.64,21.503C0.64,12.194 10.767,12.918 17.273,11.59C18.864,11.262 19.749,10.71 19.749,8.948C19.749,6.802 17.157,5.972 15.23,5.972C12.646,5.972 10.993,7.127 10.547,9.551L1.791,9.551C1.956,5.804 3.718,3.38 6.255,1.899C8.792,0.466 12.09,-0.086 15.34,-0.086C22.121,-0.086 28.669,1.399 28.669,9.496L28.669,29.327L20.352,29.327ZM13.914,24.369C18.371,24.369 19.858,21.833 19.639,15.942C18.316,16.767 15.895,16.932 13.859,17.485C11.761,17.979 9.999,18.865 9.999,21.119C9.999,23.43 11.816,24.369 13.914,24.369Z" fill="#313131"/>
</svg>
