<svg width="24" height="28" viewBox="0 0 24 28" fill="none" xmlns="http://www.w3.org/2000/svg" xmlns:xlink="http://www.w3.org/1999/xlink">
<path d="M11.651,-0.344C4.498,-0.344 -0.682,5.206 -0.682,12.853C-0.682,20.377 4.929,26.05 12.391,26.05C18.682,26.05 21.889,22.72 22.999,21.302L23.307,20.87L19.298,17.108L18.928,17.54C17.572,19.081 15.66,20.623 12.391,20.623C8.753,20.623 5.731,17.971 5.176,14.456L23.677,14.456L23.739,13.963C23.8,13.469 23.8,13.099 23.8,12.853C23.8,5.329 18.558,-0.344 11.651,-0.344ZM5.793,9.153C6.78,6.686 9.123,5.021 11.836,5.021C14.242,5.021 16.585,6.748 17.448,9.153L5.793,9.153Z" fill="#313131"/>
</svg>
