<svg width="28" height="38" viewBox="0 0 28 38" fill="none" xmlns="http://www.w3.org/2000/svg" xmlns:xlink="http://www.w3.org/1999/xlink">
<path d="M23.336,17.388C23.028,17.08 22.658,16.833 22.288,16.648C23.706,14.921 24.446,12.701 24.446,10.419C24.446,7.398 23.089,4.561 20.746,2.649C18.896,1.107 16.552,0.367 13.469,0.367L0.642,0.367L0.642,10.419L0.642,14.86L0.642,20.41L0.642,26.145L0.642,37.492L15.072,37.492C18.587,37.492 21.239,36.691 23.274,34.964C25.926,32.805 27.468,29.599 27.468,26.207C27.53,22.753 25.988,19.546 23.336,17.388ZM7.055,6.349L12.297,6.349C15.257,6.349 16.244,6.966 16.799,7.644C17.477,8.384 17.909,9.371 17.909,10.419C17.909,11.468 17.539,12.393 16.799,13.194C16.182,13.873 15.257,14.49 12.297,14.49L7.055,14.49C7.055,14.49 7.055,6.349 7.055,6.349ZM19.451,29.784C18.587,30.647 17.292,31.449 13.901,31.449L7.055,31.449L7.055,20.533L13.962,20.533C17.354,20.533 18.587,21.335 19.451,22.198C20.438,23.247 20.993,24.603 20.993,25.96C20.993,27.378 20.438,28.735 19.451,29.784Z" fill="#313131"/>
</svg>
