<svg width="270" height="46" viewBox="0 0 270 46" fill="none" xmlns="http://www.w3.org/2000/svg" xmlns:xlink="http://www.w3.org/1999/xlink">
<path d="M238.684,27.559C238.684,16.751 241.624,9.186 254.19,9.186C266.754,9.186 269.694,16.751 269.694,27.559C269.694,38.366 266.754,45.931 254.19,45.931C241.892,45.931 238.684,38.366 238.684,27.559ZM261.942,27.559C261.942,19.994 260.872,15.671 254.456,15.671C248.04,15.671 246.972,19.994 246.972,27.559C246.972,35.124 248.04,39.447 254.456,39.447C260.872,39.447 261.942,34.854 261.942,27.559ZM24.02,44.58C24.288,44.85 24.555,45.121 24.822,45.121L27.763,45.121C28.298,45.121 28.832,44.58 28.832,44.04L28.832,10.807C28.832,10.267 28.298,9.727 27.763,9.727L22.149,9.727C21.614,9.727 21.08,10.267 21.08,10.807L21.08,37.015C18.674,38.366 15.733,39.177 13.06,39.177C9.317,39.177 7.446,37.555 7.446,34.043L7.446,10.807C7.446,10.267 6.911,9.727 6.377,9.727L0.763,9.727C0.228,9.727 -0.306,10.267 -0.306,10.807L-0.306,34.583C-0.306,41.338 2.902,45.931 11.723,45.931C15.733,45.931 19.743,44.58 22.951,42.149L24.02,44.58L24.02,44.58ZM89.248,20.264C89.248,13.509 86.04,8.916 77.753,8.916C73.743,8.916 70.001,10.267 66.525,12.428C65.189,10.267 62.248,8.916 57.704,8.916C53.961,8.916 50.218,10.267 47.278,12.699L46.208,10.267C45.941,9.997 45.674,9.727 45.406,9.727L42.466,9.727C41.931,9.727 41.397,10.267 41.397,10.807L41.397,44.04C41.397,44.58 41.931,45.121 42.466,45.121L48.347,45.121C48.882,45.121 49.416,44.58 49.416,44.04L49.416,17.832C51.555,16.481 54.228,15.671 56.634,15.671C59.842,15.671 61.713,16.751 61.713,20.264L61.713,44.04C61.713,44.58 62.248,45.121 62.783,45.121L68.664,45.121C69.199,45.121 69.733,44.58 69.733,44.04L69.733,17.832C71.872,16.481 74.545,15.671 76.951,15.671C79.892,15.671 82.03,16.751 82.03,20.264L82.03,44.04C82.03,44.58 82.565,45.121 83.1,45.121L88.981,45.121C89.515,45.121 90.05,44.58 90.05,44.04L89.248,20.264L89.248,20.264ZM107.159,42.149C110.367,44.58 114.377,45.931 118.387,45.931C128.545,45.931 132.288,38.906 132.288,27.559C132.288,16.211 128.545,9.186 118.387,9.186C115.179,9.186 111.704,10.267 109.03,11.888L109.03,1.081C109.03,0.54 108.496,0 107.961,0L102.08,0C101.545,0 101.278,0.54 101.278,1.081L101.278,44.04C101.278,44.58 101.812,45.121 102.347,45.121L105.288,45.121C105.555,45.121 106.09,44.85 106.09,44.58L107.159,42.149ZM116.515,39.177C113.842,39.177 111.169,38.366 109.03,37.015L109.03,17.832C111.436,16.481 113.842,15.671 116.515,15.671C123.466,15.671 124.268,21.074 124.268,27.559C124.268,34.043 123.466,39.177 116.515,39.177ZM161.159,15.941C160.357,15.941 159.288,15.671 158.486,15.671C155.278,15.671 152.337,16.211 149.664,17.832L149.664,44.04C149.664,44.58 149.129,45.121 148.595,45.121L142.713,45.121C142.179,45.121 141.644,44.58 141.644,44.04L141.644,10.807C141.644,10.267 142.179,9.727 142.713,9.727L145.654,9.727C145.921,9.727 146.456,9.997 146.456,10.267L147.525,12.699C150.733,10.267 154.476,8.916 158.486,8.916C159.288,8.916 160.357,8.916 161.159,9.186C161.694,9.186 162.228,9.997 162.228,10.537L162.228,14.86C162.228,15.4 161.694,15.941 161.159,15.941ZM181.208,28.91C177.733,29.45 175.595,30.531 175.595,34.313C175.595,37.015 176.664,39.447 180.941,39.447C183.614,39.447 186.288,38.636 188.426,37.015L188.426,27.829L181.208,28.91ZM190.565,42.149C187.624,44.58 183.882,45.931 180.139,45.931C171.05,45.931 168.109,40.257 168.109,34.583C168.109,27.018 172.921,23.776 180.941,22.966L188.694,22.425L188.694,20.804C188.694,17.292 187.09,15.671 181.743,15.671C178.535,15.671 175.327,16.211 172.119,17.292L171.852,17.292C171.317,17.292 170.783,16.751 170.783,16.211L170.783,11.618C170.783,11.078 171.05,10.807 171.585,10.537C175.06,9.456 178.803,8.646 182.278,8.646C193.773,8.646 196.446,13.779 196.446,21.074L196.446,43.499C196.446,44.04 195.911,44.58 195.377,44.58L192.436,44.58C192.169,44.58 191.634,44.31 191.634,44.04L190.565,42.149L190.565,42.149ZM230.13,37.826L230.396,37.826C230.932,37.826 231.466,38.366 231.466,38.906L231.466,43.499C231.466,44.04 231.198,44.31 230.932,44.58C227.992,45.661 225.05,46.201 221.842,45.931C209.546,45.931 205.802,38.366 205.802,27.559C205.802,16.751 209.546,9.186 221.842,9.186C224.784,9.186 227.992,9.456 230.664,10.537C230.932,10.807 231.198,11.078 231.198,11.618L231.198,16.211C231.198,16.751 230.664,17.292 230.13,17.292L229.862,17.292C227.456,16.481 224.784,16.211 222.11,16.211C215.426,16.211 213.288,20.804 213.288,27.829C213.288,34.854 215.16,39.447 222.11,39.447C225.05,38.906 227.724,38.636 230.13,37.826Z" fill="#313131"/>
</svg>
