<svg width="32" height="32" viewBox="0 0 32 32" fill="none" xmlns="http://www.w3.org/2000/svg" xmlns:xlink="http://www.w3.org/1999/xlink">
<path d="M9.486,17.321C9.65,21.23 11.913,23.822 15.876,23.822C18.138,23.822 20.339,22.765 21.217,20.68L29.973,20.68C28.272,27.291 22.157,30.149 15.767,30.149C6.462,30.149 0.127,24.534 0.127,14.95C0.127,6.192 7.12,-0.086 15.547,-0.086C25.791,-0.086 30.912,7.621 30.473,17.321L9.486,17.321ZM21.107,12.085C20.943,8.889 18.687,6.249 15.547,6.249C12.242,6.249 10.041,8.618 9.486,12.085L21.107,12.085Z" fill="#313131"/>
</svg>
