<svg width="32" height="32" viewBox="0 0 32 32" fill="none" xmlns="http://www.w3.org/2000/svg" xmlns:xlink="http://www.w3.org/1999/xlink">
<path d="M9.301,17.321C9.466,21.23 11.728,23.822 15.698,23.822C17.946,23.822 20.154,22.765 21.033,20.68L29.796,20.68C28.088,27.291 21.972,30.149 15.582,30.149C6.278,30.149 -0.065,24.534 -0.065,14.95C-0.065,6.192 6.935,-0.086 15.362,-0.086C25.605,-0.086 30.728,7.621 30.289,17.321L9.301,17.321ZM20.923,12.085C20.759,8.889 18.503,6.249 15.362,6.249C12.057,6.249 9.857,8.618 9.301,12.085L20.923,12.085Z" fill="#313131"/>
</svg>
