<svg width="26" height="40" viewBox="0 0 26 40" fill="none" xmlns="http://www.w3.org/2000/svg" xmlns:xlink="http://www.w3.org/1999/xlink">
<path d="M19.174,1.814C17.138,0.396 14.795,-0.344 12.143,-0.344C9.861,-0.344 7.703,0.211 5.915,1.259C1.906,3.602 -0.561,8.043 -0.561,12.791C-0.561,17.601 1.844,21.918 5.915,24.262C7.703,25.31 10.046,25.927 12.267,25.927C14.795,25.927 17.077,25.248 18.989,23.892L18.989,24.077C18.989,26.852 18.619,28.702 17.755,29.997C16.645,31.662 14.795,32.525 12.328,32.525C8.443,32.525 6.346,30.429 4.805,28.455L4.435,27.962L0.056,32.032L0.303,32.402C2.029,35.116 6.285,38.261 12.575,38.261C17.447,38.261 21.455,35.979 23.552,31.97C24.601,29.935 25.032,27.407 25.032,23.768L25.032,0.149L19.174,0.149L19.174,1.814L19.174,1.814ZM18.989,17.17C17.508,19.081 15.227,20.253 12.883,20.253C8.69,20.253 5.421,16.985 5.421,12.853C5.421,8.598 8.505,5.452 12.637,5.452C15.042,5.452 17.447,6.624 18.989,8.536L18.989,17.17Z" fill="#313131"/>
</svg>
