<svg width="26" height="38" viewBox="0 0 26 38" fill="none" xmlns="http://www.w3.org/2000/svg" xmlns:xlink="http://www.w3.org/1999/xlink">
<path d="M18.19,1.259C16.402,0.211 14.243,-0.344 11.962,-0.344C9.31,-0.344 6.966,0.396 4.931,1.814L4.931,0.211L-0.927,0.211L-0.927,37.891L5.116,37.891L5.116,23.953C7.028,25.31 9.31,25.988 11.838,25.988C14.058,25.988 16.463,25.372 18.19,24.323C22.26,21.918 24.665,17.663 24.665,12.853C24.727,8.104 22.199,3.664 18.19,1.259ZM11.222,20.253C8.94,20.253 6.658,19.081 5.116,17.17L5.116,8.474C6.658,6.562 9.001,5.391 11.468,5.391C15.6,5.391 18.684,8.598 18.684,12.791C18.684,16.985 15.415,20.253 11.222,20.253Z" fill="#313131"/>
</svg>
