<svg width="26" height="26" viewBox="0 0 26 26" fill="none" xmlns="http://www.w3.org/2000/svg" xmlns:xlink="http://www.w3.org/1999/xlink">
<path d="M20.063,1.814C18.028,0.396 15.684,-0.344 13.032,-0.344C10.751,-0.344 8.592,0.211 6.804,1.259C2.795,3.602 0.328,8.043 0.328,12.791C0.328,17.601 2.734,21.918 6.804,24.262C8.592,25.31 10.936,25.927 13.156,25.927C15.684,25.927 18.089,25.187 20.063,23.83L20.063,25.433L25.921,25.433L25.921,0.149L20.063,0.149L20.063,1.814ZM19.878,17.17C18.398,19.081 16.116,20.253 13.772,20.253C9.579,20.253 6.31,16.985 6.31,12.853C6.31,8.598 9.394,5.452 13.526,5.452C15.931,5.452 18.336,6.624 19.878,8.536L19.878,17.17Z" fill="#313131"/>
</svg>
